0
SECTION
2
HEADER
9
$INSUNITS
70
4
9
$ACADVER
1
AC1014
9
$HANDSEED
5
FFFF
0
ENDSEC
0
SECTION
2
TABLES
0
TABLE
2
VPORT
5
8
100
AcDbSymbolTable
0
ENDTAB
0
TABLE
2
LTYPE
5
5
100
AcDbSymbolTable
0
LTYPE
5
14
100
AcDbSymbolTableRecord
100
AcDbLinetypeTableRecord
2
BYBLOCK
70
0
0
LTYPE
5
15
100
AcDbSymbolTableRecord
100
AcDbLinetypeTableRecord
2
BYLAYER
70
0
0
ENDTAB
0
TABLE
2
LAYER
5
2
100
AcDbSymbolTable
70
2
0
LAYER
5
50
100
AcDbSymbolTableRecord
100
AcDbLayerTableRecord
2
0
70
0
6
CONTINUOUS
0
ENDTAB
0
TABLE
2
STYLE
5
3
100
AcDbSymbolTable
70
1
0
STYLE
5
11
100
AcDbSymbolTableRecord
100
AcDbTextStyleTableRecord
2
STANDARD
70
0
0
ENDTAB
0
TABLE
2
VIEW
5
6
100
AcDbSymbolTable
70
0
0
ENDTAB
0
TABLE
2
UCS
5
7
100
AcDbSymbolTable
70
0
0
ENDTAB
0
TABLE
2
APPID
5
9
100
AcDbSymbolTable
70
2
0
APPID
5
12
100
AcDbSymbolTableRecord
100
AcDbRegAppTableRecord
2
ACAD
70
0
0
ENDTAB
0
TABLE
2
DIMSTYLE
5
A
100
AcDbSymbolTable
70
1
0
ENDTAB
0
TABLE
2
BLOCK_RECORD
5
1
100
AcDbSymbolTable
70
1
0
BLOCK_RECORD
5
1F
100
AcDbSymbolTableRecord
100
AcDbBlockTableRecord
2
*MODEL_SPACE
0
BLOCK_RECORD
5
1B
100
AcDbSymbolTableRecord
100
AcDbBlockTableRecord
2
*PAPER_SPACE
0
ENDTAB
0
ENDSEC
0
SECTION
2
BLOCKS
0
BLOCK
5
20
100
AcDbEntity
100
AcDbBlockBegin
2
*MODEL_SPACE
0
ENDBLK
5
21
100
AcDbEntity
100
AcDbBlockEnd
0
BLOCK
5
1C
100
AcDbEntity
100
AcDbBlockBegin
2
*PAPER_SPACE
0
ENDBLK
5
1D
100
AcDbEntity
100
AcDbBlockEnd
0
ENDSEC
0
SECTION
2
ENTITIES
0
LWPOLYLINE
5
100
100
AcDbEntity
8
0
100
AcDbPolyline
90
4
70
1
43
0.0
10
65.48391584645357
20
136.05851412320351
42
0.99999999999999989
10
37.29313722290992
20
146.31911842296194
10
16.771928623367117
20
89.937561175808412
42
0.99999999999999989
10
44.962707246916096
20
79.676956876048038
0
LWPOLYLINE
5
101
100
AcDbEntity
8
0
100
AcDbPolyline
90
4
70
1
43
0.0
10
137.62031691860335
20
62.134618943246323
42
0.99999999999999989
10
122.62031691862049
20
88.115381056753606
10
70.658792691552691
20
58.115381056754302
42
0.99999999999999989
10
85.658792691538537
20
32.134618943246025
0
LWPOLYLINE
5
102
100
AcDbEntity
8
0
100
AcDbPolyline
90
4
70
1
43
0.0
10
145.36264222508325
20
-40.862754989621884
42
0.99999999999999989
10
150.57208755508526
20
-11.318522399290698
10
91.483622374353288
20
-0.89963173924174189
42
0.99999999999999989
10
86.274177044350267
20
-30.443864329639219
0
LWPOLYLINE
5
103
100
AcDbEntity
8
0
100
AcDbPolyline
90
4
70
1
43
0.0
10
85.08817170863091
20
-124.73999172391356
42
0.99999999999999989
10
108.06950500217417
20
-105.45636343333939
10
69.502248420984003
20
-59.49369684619878
42
0.99999999999999989
10
46.520915127436325
20
-78.777325136776781
0
LWPOLYLINE
5
104
100
AcDbEntity
8
0
100
AcDbPolyline
90
4
70
1
43
0.0
10
224.35150094637112
20
-6.5745936168003283
10
250.9712395474063
20
-99.965877915750923
42
-0.99999999999999989
10
226.92882844406518
20
-106.81879469180555
10
200.3090898430541
20
-13.427510392848054
42
-0.99999999999999989
0
CIRCLE
5
105
100
AcDbEntity
8
0
100
AcDbCircle
10
-138.56406460551025
20
-79.999999999999943
30
0
40
3.3655000000000079
210
0
220
-0
230
1
0
CIRCLE
5
106
100
AcDbEntity
8
0
100
AcDbCircle
10
-157.56924048195327
20
27.783708426708831
30
0
40
3.3654999999999902
210
0
220
-0
230
1
0
CIRCLE
5
107
100
AcDbEntity
8
0
100
AcDbCircle
10
-102.84601754984628
20
122.56711089903646
30
0
40
3.3655000000000079
210
0
220
-0
230
1
0
LWPOLYLINE
5
108
100
AcDbEntity
8
0
100
AcDbPolyline
90
4
70
1
43
0.0
10
6.5745936168003283
20
224.35150094637123
10
99.965877915751065
20
250.97123954740641
42
-0.99999999999999989
10
106.81879469180558
20
226.92882844406529
10
13.427510571977981
20
200.30908989411233
42
-1.0000000074505804
0
LWPOLYLINE
5
109
100
AcDbEntity
8
0
100
AcDbPolyline
90
4
70
1
43
0.0
10
197.58139600512604
20
106.48198538147747
10
267.33040802519918
20
38.912629987049058
42
-0.99999999999999989
10
249.93552762950401
20
20.956624417294716
10
180.18651560944835
20
88.525979811741124
42
-0.99999999999999989
0
LWPOLYLINE
5
110
100
AcDbEntity
8
0
100
AcDbPolyline
90
4
70
1
43
0.0
10
-106.48198538147746
20
197.58139600512618
10
-38.912629857447122
20
267.33040815898187
42
-0.9999999925494194
10
-20.956624417294737
20
249.93552762950415
10
-88.525979811741209
20
180.18651560944843
42
-0.99999999999999989
0
LWPOLYLINE
5
111
100
AcDbEntity
8
0
100
AcDbPolyline
90
4
70
1
43
0.0
10
-191.00680238832578
20
117.86951556489379
10
-167.36453010944825
20
212.05860956035747
42
-0.99999999999999989
10
-143.11673293769854
20
205.9722040267707
10
-166.75900521660037
20
111.78311003131311
42
-0.99999999999999989
0
LWPOLYLINE
5
112
100
AcDbEntity
8
0
100
AcDbPolyline
90
4
70
1
43
0.0
10
-224.35150094637117
20
6.5745936168004704
10
-250.9712395474065
20
99.965877915751179
42
-0.99999999999999989
10
-226.92882844406529
20
106.81879469180571
10
-200.30908984305427
20
13.427510392848179
42
-0.99999999999999989
0
CIRCLE
5
113
100
AcDbEntity
8
0
100
AcDbCircle
10
-181.69703043075242
20
-32.038088779548573
30
0
40
3.3749999999999987
210
0
220
-0
230
1
0
CIRCLE
5
114
100
AcDbEntity
8
0
100
AcDbCircle
10
102.84601754984629
20
122.56711089903648
30
0
40
3.3655000000000079
210
0
220
-0
230
1
0
CIRCLE
5
115
100
AcDbEntity
8
0
100
AcDbCircle
10
-7.1054273576010019e-14
20
2.6645352591003757e-14
30
0
40
29.5
210
0
220
-0
230
1
0
LWPOLYLINE
5
116
100
AcDbEntity
8
0
100
AcDbPolyline
90
4
70
1
43
0.0
10
31.216978045700397
20
22.930607966083567
10
33.815054257053539
20
24.430607966083869
42
-0.99999999999999989
10
38.065054257054513
20
17.069392033916774
10
35.466978045701396
20
15.569392033916415
42
-0.99999999999999989
0
LWPOLYLINE
5
117
100
AcDbEntity
8
0
100
AcDbPolyline
90
4
70
1
43
0.0
10
-35.46697804570038
20
15.569392033915861
10
-38.065054257053873
20
17.069392033915559
42
-0.99999999999999989
10
-33.815054257054904
20
24.430607966083823
10
-31.216978045701389
20
22.930607966084175
42
-0.99999999999999989
0
LWPOLYLINE
5
118
100
AcDbEntity
8
0
100
AcDbPolyline
90
4
70
1
43
0.0
10
14.999999999972873
20
-90.25
42
0.99999999999999989
10
-14.999999999972873
20
-90.249999999999972
10
-14.999999999982192
20
-150.25
42
0.99999999999999989
10
14.999999999982192
20
-150.25000000000003
0
CIRCLE
5
119
100
AcDbEntity
8
0
100
AcDbCircle
10
0
20
-184.5
30
0
40
3.375
210
0
220
-0
230
1
0
CIRCLE
5
120
100
AcDbEntity
8
0
100
AcDbCircle
10
-118.59431398716653
20
-141.33519975545141
30
0
40
3.374999999999992
210
0
220
-0
230
1
0
CIRCLE
5
121
100
AcDbEntity
8
0
100
AcDbCircle
10
159.78168699822896
20
92.249999999999957
30
0
40
3.3749999999999991
210
0
220
-0
230
1
0
CIRCLE
5
122
100
AcDbEntity
8
0
100
AcDbCircle
10
63.102716443585905
20
173.37328853500009
30
0
40
3.3749999999999987
210
0
220
-0
230
1
0
CIRCLE
5
123
100
AcDbEntity
8
0
100
AcDbCircle
10
-63.102716443585862
20
173.37328853500011
30
0
40
3.3749999999999987
210
-0
220
0
230
1
0
CIRCLE
5
124
100
AcDbEntity
8
0
100
AcDbCircle
10
-159.78168699822888
20
92.250000000000085
30
0
40
3.3749999999999991
210
-0
220
0
230
1
0
CIRCLE
5
125
100
AcDbEntity
8
0
100
AcDbCircle
10
-54.723222932107035
20
-150.35081932574533
30
0
40
3.365499999999999
210
0
220
-0
230
1
0
CIRCLE
5
126
100
AcDbEntity
8
0
100
AcDbCircle
10
54.723222932106964
20
-150.35081932574536
30
0
40
3.365499999999999
210
0
220
-0
230
1
0
LWPOLYLINE
5
127
100
AcDbEntity
8
0
100
AcDbPolyline
90
4
70
1
43
0.0
10
106.48198538147741
20
-197.58139600512607
42
0.99999999999999989
10
88.525979811741024
20
-180.18651560944841
10
20.956624417329476
20
-249.93552762950407
42
0.99999999999999989
10
38.912629987048945
20
-267.33040802519918
0
LWPOLYLINE
5
128
100
AcDbEntity
8
0
100
AcDbPolyline
90
4
70
1
43
0.0
10
191.0068023883257
20
-117.86951556489367
10
167.36453010944814
20
-212.0586095603573
42
-0.99999999999999989
10
143.1167329376984
20
-205.97220402677061
10
166.75900521660037
20
-111.78311003131313
42
-0.99999999999999989
0
CIRCLE
5
129
100
AcDbEntity
8
0
100
AcDbCircle
10
1.7763568394002505e-14
20
160
30
0
40
3.3655000000000013
210
0
220
-0
230
1
0
CIRCLE
5
130
100
AcDbEntity
8
0
100
AcDbCircle
10
157.5692404819533
20
27.783708426708884
30
0
40
3.3655000000000079
210
0
220
-0
230
1
0
CIRCLE
5
131
100
AcDbEntity
8
0
100
AcDbCircle
10
138.5640646055102
20
-79.999999999999986
30
0
40
3.3655000000000079
210
0
220
-0
230
1
0
LWPOLYLINE
5
132
100
AcDbEntity
8
0
100
AcDbPolyline
90
4
70
1
43
0.0
10
-108.06950500217414
20
-105.45636343333932
42
0.99999999999999989
10
-85.088171708630995
20
-124.73999172391352
10
-46.520915127440233
20
-78.777325136776767
42
0.99999999999999989
10
-69.502248420980138
20
-59.493696846198745
0
LWPOLYLINE
5
133
100
AcDbEntity
8
0
100
AcDbPolyline
90
4
70
1
43
0.0
10
-150.57208755508523
20
-11.318522399288963
42
0.99999999999999989
10
-145.36264222508333
20
-40.862754989623497
10
-86.27417704435031
20
-30.443864329622112
42
1.0000000105367119
10
-91.483622374353288
20
-0.89963173925877271
0
LWPOLYLINE
5
134
100
AcDbEntity
8
0
100
AcDbPolyline
90
4
70
1
43
0.0
10
-37.293137222909678
20
146.31911842296194
42
0.99999998946328772
10
-65.483915846453755
20
136.05851412320357
10
-44.962707246916935
20
79.676956876048052
42
0.99999999999999989
10
-16.771928623366456
20
89.93756117580844
0
LWPOLYLINE
5
135
100
AcDbEntity
8
0
100
AcDbPolyline
90
4
70
1
43
0.0
10
-122.62031691862036
20
88.115381056751843
42
0.99999999999999989
10
-137.62031691860341
20
62.134618943248299
10
-85.658792691538508
20
32.134618943248128
42
1.0000000105367119
10
-70.65879269155262
20
58.115381056754387
0
CIRCLE
5
136
100
AcDbEntity
8
0
100
AcDbCircle
10
181.69703043075236
20
-32.038088779548659
30
0
40
3.3749999999999987
210
0
220
-0
230
1
0
LWPOLYLINE
5
137
100
AcDbEntity
8
0
100
AcDbPolyline
90
4
70
1
43
0.0
10
117.86951556489367
20
191.00680238832587
10
212.05860974101753
20
167.36453006410096
42
-0.9999999925494194
10
205.97220402677061
20
143.11673293769849
10
111.78311003131306
20
166.7590052166002
42
-0.99999999999999989
0
CIRCLE
5
138
100
AcDbEntity
8
0
100
AcDbCircle
10
118.59431398716649
20
-141.33519975545144
30
0
40
3.374999999999992
210
0
220
-0
230
1
0
LWPOLYLINE
5
139
100
AcDbEntity
8
0
100
AcDbPolyline
90
4
70
1
43
0.0
10
-117.86951556489387
20
-191.00680238832564
10
-212.0586095603575
20
-167.36453010944797
42
-0.99999999999999989
10
-205.97220402677081
20
-143.11673293769829
10
-111.78311003131327
20
-166.75900521660023
42
-0.99999999999999989
0
LWPOLYLINE
5
140
100
AcDbEntity
8
0
100
AcDbPolyline
90
4
70
1
43
0.0
10
-197.58139600512621
20
-106.48198538147736
10
-267.33040802519923
20
-38.912629987049002
42
-0.99999999999999989
10
-249.93552762950415
20
-20.956624417294634
10
-180.18651560944846
20
-88.525979811741109
42
-0.99999999999999989
0
LWPOLYLINE
5
141
100
AcDbEntity
8
0
100
AcDbPolyline
90
4
70
1
43
0.0
10
-6.5745936168005059
20
-224.35150094637106
10
-99.965877915751179
20
-250.97123954740638
42
-0.99999999999999989
10
-106.81879469180573
20
-226.92882844406518
10
-13.427510392848232
20
-200.30908984305415
42
-0.99999999999999989
0
LWPOLYLINE
5
142
100
AcDbEntity
8
0
100
AcDbPolyline
90
4
70
1
43
0.0
10
-4.2499999999995905
20
-41.50000000000059
42
0.99999999999999989
10
4.2499999999995905
20
-41.499999999999417
10
4.2499999999999947
20
-38.499999999999417
42
0.99999999999999989
10
-4.2499999999999982
20
-38.500000000000583
0
CIRCLE
5
143
100
AcDbEntity
8
0
100
AcDbCircle
10
-7.1054273576010019e-14
20
2.6645352591003757e-14
30
0
40
300
210
0
220
0
230
1
0
ENDSEC
0
SECTION
2
OBJECTS
0
DICTIONARY
5
C
100
AcDbDictionary
3
ACAD_GROUP
350
D
3
ACAD_MLINESTYLE
350
17
0
DICTIONARY
5
D
100
AcDbDictionary
0
DICTIONARY
5
1A
330
C
100
AcDbDictionary
0
DICTIONARY
5
17
100
AcDbDictionary
0
ENDSEC
0
EOF
